HIERARCHY
ROOT Hips
{
  OFFSET 0 29 0
  CHANNELS 6 Xposition Yposition Zposition Zrotation Xrotation Yrotation
  JOINT Spine
  {
    OFFSET 0 10.1816 0.131521
    CHANNELS 3 Zrotation Xrotation Yrotation
    JOINT Spine1
    {
      OFFSET 0 10.0835 -1.0008
      CHANNELS 3 Zrotation Xrotation Yrotation
      JOINT Spine2
      {
        OFFSET 0 9.10001 -1.37342
        CHANNELS 3 Zrotation Xrotation Yrotation
        JOINT Neck
        {
          OFFSET 0 16.6717 -2.51617
          CHANNELS 3 Zrotation Xrotation Yrotation
          JOINT Head
          {
            OFFSET 0 9.61788 1.68501
            CHANNELS 3 Zrotation Xrotation Yrotation
            End Site
            {
              OFFSET 0 0 0
            }
          }
        }
        JOINT LeftShoulder
        {
          OFFSET 10.57045 10.946 -2.62799
          CHANNELS 3 Zrotation Xrotation Yrotation
          JOINT LeftArm
          {
            OFFSET 10.5924 -0.524583 -2.23212
            CHANNELS 3 Zrotation Xrotation Yrotation
            JOINT LeftForeArm
            {
              OFFSET 27.8415 -8.94286e-05 3.74589e-05
              CHANNELS 3 Zrotation Xrotation Yrotation
              JOINT LeftHand
              {
                OFFSET 28.3288 -1.74407e-05 3.78045e-05
                CHANNELS 3 Zrotation Xrotation Yrotation
                End Site
                {
                  OFFSET 0 0 0
                }
              }
            }
          }
        }
        JOINT RightShoulder
        {
          OFFSET -10.56997 10.9462 -2.62802
          CHANNELS 3 Zrotation Xrotation Yrotation
          JOINT RightArm
          {
            OFFSET -10.5928 -0.524798 -2.2321
            CHANNELS 3 Zrotation Xrotation Yrotation
            JOINT RightForeArm
            {
              OFFSET -27.8415 -3.30792e-05 1.16763e-05
              CHANNELS 3 Zrotation Xrotation Yrotation
              JOINT RightHand
              {
                OFFSET -28.3288 0 5.5816e-05
                CHANNELS 3 Zrotation Xrotation Yrotation
                End Site
                {
                  OFFSET 0 0 0
                }
              }
            }
          }
        }
      }
    }
  }
  JOINT LeftUpLeg
  {
    OFFSET 8.20778 -6.75171 -1.59956
    CHANNELS 3 Zrotation Xrotation Yrotation
    JOINT LeftLeg
    {
      OFFSET 0 -44.3705 0.284643
      CHANNELS 3 Zrotation Xrotation Yrotation
      JOINT LeftFoot
      {
        OFFSET 0 -44.4279 -2.98219
        CHANNELS 3 Zrotation Xrotation Yrotation
        JOINT LeftToeBase
        {
          OFFSET 0 -8.72867 10.7106
          CHANNELS 3 Zrotation Xrotation Yrotation
          End Site
          {
            OFFSET 0 0 0
          }
        }
      }
    }
  }
  JOINT RightUpLeg
  {
    OFFSET -8.2078 -6.75166 -1.59956
    CHANNELS 3 Zrotation Xrotation Yrotation
    JOINT RightLeg
    {
      OFFSET 0 -44.3705 0.286156
      CHANNELS 3 Zrotation Xrotation Yrotation
      JOINT RightFoot
      {
        OFFSET 0 -44.4277 -2.98379
        CHANNELS 3 Zrotation Xrotation Yrotation
        JOINT RightToeBase
        {
          OFFSET 0 -8.72867 10.7106
          CHANNELS 3 Zrotation Xrotation Yrotation
          End Site
          {
            OFFSET 0 0 0
          }
        }
      }
    }
  }
}
MOTION
Frames:	6
Frame Time:	0.0333333
-1.18455 92.6058 1.21196 -0.007235666666666667 -0.009300333333333334 0.09997666666666666 0.0 -9.999999974752427e-07 0.0 0.0 0.0 0.0 0.0 0.0 0.0 0.0 0.0 0.0 0.0 -9.999999974752427e-07 0.0 -3.999999989900971e-06 -1.9999999949504854e-06 9.999999974752427e-07 1.499999999055035e-05 -2.999999992425728e-06 1.9999999949504854e-06 -9.000000005698894e-06 -1.0000000003174137e-05 3.999999989900971e-06 9.999999974752427e-07 -9.999999974752427e-07 -9.999999974752427e-07 1.1999999998124622e-05 3.999999989900971e-06 0.0 -7.000000010748408e-06 -9.999999974752427e-07 1.9999999949504854e-06 -1.5999999988025593e-05 -6.000000013273166e-06 -4.9999999873762135e-06 4.9999999873762135e-06 0.0 9.999999974752427e-07 1.3999999993075107e-05 9.000000005698894e-06 -0.0002020000000015898 -1.499999999055035e-05 -2.599999999119973e-05 0.0002020000000015898 0.0 0.0 0.0 0.0 1.9999999949504854e-06 0.0 4.9999999873762135e-06 8.000000008223651e-06 -1.2999999995599865e-05 -9.999999974752427e-07 -1.1999999998124622e-05 1.2999999995599865e-05 0.0 -2.999999992425728e-06 0.0 0.0 0.0 0.0 
-0.929989 92.2539 1.94518 -0.003447 -0.010576 0.08532333333333332 0.0 0.0 0.0 0.0 -9.999999974752427e-07 9.999999974752427e-07 -9.999999974752427e-07 9.999999974752427e-07 -9.999999974752427e-07 0.0 9.999999974752427e-07 -1.9999999949504854e-06 9.011460999999997 0.06419999999999959 0.0028330000000096334 34.833586 2.035047999999989 -9.110777000000013 -64.723576 -25.228113000000008 -15.188655000000011 -49.68471499999998 -47.973595999999986 9.78689 0.0 -9.999999974752427e-07 -9.999999974752427e-07 -27.549990000000008 2.649688999999995 -10.620166000000012 48.00268199999999 -27.585005999999993 8.814224999999993 62.831777999999986 -47.274799 0.34606600000000753 1.9999999949504854e-06 0.0 0.0 -0.031664000000006354 -34.37594300000001 -0.15278200000000197 -1.4250120000000095 20.839749000000012 0.14141900000001328 -1.9999999949504854e-06 0.0 1.9999999949504854e-06 -2.999999992425728e-06 9.999999974752427e-07 0.0 -1.2512720000000002 11.459917999999988 -0.1292229999999961 -3.144801000000001 11.435013999999995 0.3115620000000092 0.0 1.9999999949504854e-06 0.0 9.999999974752427e-07 3.999999989900971e-06 1.9999999949504854e-06 
-0.635223 91.9035 2.77291 -0.003633666666666667 -0.010635333333333335 0.08611033333333333 0.0 0.0 0.0 9.999999974752427e-07 -9.999999974752427e-07 0.0 -9.999999974752427e-07 0.0 0.0 0.0 -9.999999974752427e-07 0.0 7.5468740000000025 -3.0603869999999915 0.01232899999999404 34.37957299999999 2.2363960000000134 -10.213673999999997 -64.846977 -26.455191000000013 -15.524832000000004 -63.531189 -48.33054799999999 -0.7104019999999878 2.999999992425728e-06 -2.999999992425728e-06 9.999999974752427e-07 -29.10560799999999 3.231179999999995 -9.511646000000013 47.016808999999995 -27.23093800000001 8.234542000000005 76.65703000000002 -43.424147000000005 7.991749999999996 2.999999992425728e-06 0.0 3.999999989900971e-06 -1.014460000000014 -35.814616 -0.23164399999998864 -3.622849000000002 25.353370000000012 0.359027999999995 -9.999999974752427e-07 -1.9999999949504854e-06 0.0 0.0 0.0 0.0 -1.2744619999999998 13.26178999999999 -0.14011400000001117 -1.9440950000000043 18.213778999999988 0.19267999999999574 9.999999974752427e-07 -1.9999999949504854e-06 1.9999999949504854e-06 0.0 4.9999999873762135e-06 0.0 
-0.260761 91.4258 3.7916 -0.00366 -0.010607 0.08611166666666666 0.0 9.999999974752427e-07 0.0 0.0 -1.9999999949504854e-06 9.999999974752427e-07 9.999999974752427e-07 -9.999999974752427e-07 0.0 9.999999974752427e-07 0.0 0.0 7.648741999999999 -3.063506999999987 0.012270999999998367 34.303303 2.216719000000012 -9.934785000000005 -64.70062 -26.207155999999998 -15.414481999999992 -63.89152899999999 -48.263384 -0.940938999999986 -7.000000010748408e-06 0.0 3.999999989900971e-06 -29.178561000000002 3.199544000000003 -9.288668999999999 46.998155999999994 -27.283603999999997 8.231944999999996 76.60434900000001 -43.19164699999999 7.801118000000002 0.0 -9.999999974752427e-07 9.999999974752427e-07 -0.8491710000000126 -35.53617299999999 -0.21825799999999163 -3.447242999999986 25.043048999999996 0.3416569999999979 -1.9999999949504854e-06 -1.9999999949504854e-06 0.0 -4.9999999873762135e-06 1.9999999949504854e-06 -3.999999989900971e-06 -1.3534410000000037 12.959723999999994 -0.14466699999999832 -1.7799669999999992 18.20750000000001 0.176431000000008 1.9999999949504854e-06 2.999999992425728e-06 1.9999999949504854e-06 9.999999974752427e-07 2.999999992425728e-06 9.999999974752427e-07 
0.195806 90.8418 5.05827 -0.0034883333333333333 -0.011062333333333334 0.08680733333333333 0.0 0.0 0.0 -9.999999974752427e-07 0.0 0.0 0.0 9.999999974752427e-07 0.0 0.0 9.999999974752427e-07 0.0 6.567937999999998 1.2505329999999901 0.0014730000000042764 34.58239499999999 2.6671049999999923 -11.355953999999997 -66.694031 -22.75924599999999 -15.457299000000006 -68.121097 -43.12950599999999 -1.8643769999999904 9.999999974752427e-07 6.000000013273166e-06 1.9999999949504854e-06 -27.26810599999999 3.831936000000013 -13.174461000000008 48.49037100000001 -16.832398000000012 9.987378000000007 83.75122599999997 -40.673203 10.318579 1.9999999949504854e-06 0.0 -9.999999974752427e-07 -2.7501279999999895 -31.725753999999995 -0.3501929999999902 -4.113217999999989 20.13704899999999 0.4075149999999894 0.0 0.0 9.999999974752427e-07 -2.999999992425728e-06 -9.999999974752427e-07 0.0 0.6967789999999923 16.874740000000003 -0.006910000000004857 -3.499293999999992 14.613224000000002 0.34663900000001036 0.0 0.0 9.999999974752427e-07 0.0 6.000000013273166e-06 9.999999974752427e-07 
0.734569 90.1627 6.65374 -0.0032516666666666666 -0.011214666666666666 0.086067 0.0 0.0 2.999999992425728e-06 0.0 0.0 9.999999974752427e-07 0.0 0.0 -9.999999974752427e-07 9.999999974752427e-07 0.0 -3.999999989900971e-06 -2.201627000000002 -6.57107400000001 0.024639000000007627 32.631946 2.974389000000002 -3.4492520000000013 -71.707472 -23.786023 -17.160055999999997 -81.727441 -50.305965000000015 -18.110487000000006 3.999999989900971e-06 -6.000000013273166e-06 1.9999999949504854e-06 -32.516031 4.18137200000001 -5.43300099999999 46.54200500000002 -14.348014000000006 10.285425000000004 109.548926 -44.439887999999996 50.202935 0.0 -1.9999999949504854e-06 9.999999974752427e-07 -5.611716000000001 -33.652417000000014 -0.5697869999999909 -5.600756999999987 30.40876 0.5544020000000103 9.999999974752427e-07 2.999999992425728e-06 1.9999999949504854e-06 1.9999999949504854e-06 9.999999974752427e-07 2.999999992425728e-06 -1.9318649999999877 24.917358000000007 -0.24498199999999315 -0.6070300000000088 22.45985300000001 0.060202000000003864 2.999999992425728e-06 -4.9999999873762135e-06 -9.999999974752427e-07 9.999999974752427e-07 -9.999999974752427e-07 0.0 
